<?xml version="1.0" encoding="UTF-8" standalone="no"?>
<svg
   viewBox="0 0 515.34 673.26"
   version="1.1"
   id="svg3"
   sodipodi:docname="hyprgui.svg"
   inkscape:version="1.4 (e7c3feb100, 2024-10-09)"
   inkscape:export-filename="../hyprgui/hyprgui.png"
   inkscape:export-xdpi="102.66"
   inkscape:export-ydpi="102.66"
   xmlns:inkscape="http://www.inkscape.org/namespaces/inkscape"
   xmlns:sodipodi="http://sodipodi.sourceforge.net/DTD/sodipodi-0.dtd"
   xmlns="http://www.w3.org/2000/svg"
   xmlns:svg="http://www.w3.org/2000/svg">
  <sodipodi:namedview
     id="namedview3"
     pagecolor="#ffffff"
     bordercolor="#000000"
     borderopacity="0.25"
     inkscape:showpageshadow="2"
     inkscape:pageopacity="0.0"
     inkscape:pagecheckerboard="0"
     inkscape:deskcolor="#d1d1d1"
     inkscape:zoom="1.2217465"
     inkscape:cx="301.20814"
     inkscape:cy="326.9909"
     inkscape:window-width="1916"
     inkscape:window-height="1056"
     inkscape:window-x="0"
     inkscape:window-y="20"
     inkscape:window-maximized="1"
     inkscape:current-layer="svg3" />
  <defs
     id="defs2">
    <style
       id="style1">
      .cls-1 {
        mix-blend-mode: difference;
      }

      .cls-2 {
        isolation: isolate;
      }

      .cls-3 {
        fill: url(#linear-gradient);
      }
    </style>
    <linearGradient
       id="linear-gradient"
       x1="8.93"
       y1="572.38"
       x2="572.68"
       y2="102.08"
       gradientUnits="userSpaceOnUse">
      <stop
         offset="0"
         stop-color="#00a2f8"
         id="stop1" />
      <stop
         offset="1"
         stop-color="#00e5cf"
         id="stop2" />
    </linearGradient>
    <filter
       style="color-interpolation-filters:sRGB;"
       inkscape:label="Invert"
       id="filter5"
       x="0"
       y="0"
       width="1"
       height="1">
      <feColorMatrix
         values="-1 0 0 0 1 0 -1 0 0 1 0 0 -1 0 1 -0.21 -0.72 -0.07 2 0 "
         result="color2"
         id="feColorMatrix5" />
    </filter>
  </defs>
  <g
     class="cls-2"
     id="g3"
     style="filter:url(#filter5)">
    <g
       id="Layer_2"
       data-name="Layer 2">
      <g
         id="Layer_1-2"
         data-name="Layer 1">
        <g
           class="cls-1"
           id="g2">
          <path
             class="cls-3"
             d="m 288.53,0 c 1.99,2.11 3.26,3.13 4.14,4.42 15.97,23.63 31.7,47.44 47.91,70.91 9.33,13.51 19.26,26.61 29.22,39.67 9.63,12.65 19.8,24.88 29.44,37.53 11.15,14.63 22.45,29.18 32.81,44.36 13.27,19.45 26.64,38.94 38.12,59.44 9.76,17.43 17.56,36.05 25.02,54.64 5.28,13.16 8.82,27.06 12.6,40.78 1.75,6.36 2.24,13.07 3.26,19.62 1.26,8.02 3.4,16.04 3.53,24.08 0.35,20.94 2.17,41.95 -1.48,62.8 -4.02,22.99 -10.75,45 -20.76,66.23 -10.12,21.45 -22.38,41.26 -37.39,59.59 -13.6,16.61 -29.57,30.33 -46.84,42.91 -12.68,9.23 -26.09,17.07 -40.36,23.3 -12.84,5.6 -26.07,10.09 -39.69,13.89 -30.75,8.56 -61.93,10.44 -93.33,8.23 -18.93,-1.33 -38.08,-3.65 -56.11,-10.46 -14.82,-5.6 -29.75,-11.13 -43.92,-18.13 -11.19,-5.52 -21.91,-12.44 -31.73,-20.15 C 90.09,613.55 77.45,602.85 66.3,590.92 56.31,580.24 47.66,568.05 39.9,555.61 31.72,542.48 24.51,528.6 18.32,514.41 11.63,499.09 7.31,482.96 3.79,466.44 -1.69,440.73 0.08,415 1.2,389.35 c 0.64,-14.73 4.53,-29.47 8.26,-43.86 3.93,-15.18 8.68,-30.26 14.44,-44.84 5.77,-14.6 12.47,-28.96 20.14,-42.65 9.63,-17.18 20.25,-33.85 31.2,-50.23 9.94,-14.88 20.68,-29.24 31.47,-43.52 8.69,-11.5 18.17,-22.41 26.97,-33.83 8.9,-11.55 17.46,-23.36 26.07,-35.13 9.11,-12.46 18.29,-24.87 27.09,-37.55 11.16,-16.07 21.91,-32.43 32.97,-48.57 1.58,-2.31 3.88,-4.14 5.84,-6.19 0.39,0.22 0.78,0.44 1.18,0.66 0.08,1.77 0.23,3.54 0.23,5.31 0.01,26.33 0.15,52.66 -0.17,78.99 -0.05,3.86 -1.62,8.15 -3.72,11.46 -8.5,13.45 -17.19,26.8 -26.38,39.79 -8.71,12.31 -18.12,24.13 -27.22,36.16 -7.5,9.91 -14.97,19.83 -22.52,29.7 -5.24,6.85 -10.74,13.5 -15.86,20.44 -7.16,9.72 -14.35,19.45 -21.03,29.5 -8.06,12.12 -15.99,24.36 -23.23,36.97 -5.18,9.02 -9.26,18.69 -13.59,28.17 -2.4,5.26 -4.61,10.64 -6.36,16.14 -3.1,9.76 -5.58,19.71 -8.68,29.47 -8.72,27.42 -6.87,55.63 -4.92,83.5 0.99,14.15 6.11,28.15 10.4,41.89 0.623506,18.442 -13.006469,47.47199 -1.376469,63.91199 7.94,11.23 46.276469,10.20801 56.466469,19.18801 8.39,7.38 17.5,14.17 27.07,19.92 10.89,6.54 22.23,12.77 34.12,17.07 12.69,4.59 26.1,7.99 39.48,9.68 15.93,2.01 32.16,1.58 48.25,2.34 14.94,0.7 29.43,-2.29 43.93,-5.14 18.41,-3.62 35.23,-11.56 51.58,-20.26 19.55,-10.4 35.98,-25.13 50.37,-41.73 14.71,-16.97 27.06,-36.05 34.92,-57 8.29,-22.1 15.2,-44.97 14.15,-69.26 -0.57,-13.13 0.15,-26.34 -1.06,-39.39 -0.89,-9.61 -3.62,-19.11 -6.16,-28.5 -2.98,-11.03 -6.03,-22.1 -10.16,-32.73 -4.11,-10.59 -10.82693,-24.05058 -15.98693,-34.20058 -4.57,-8.99 15.46498,-80.59579 -14.56472,-25.62839 -6.5,-10.39 -17.55848,-25.33827 -24.85848,-35.17827 -5.525,-7.45 -10.86709,-14.16276 -16.22418,-20.86302 -5.35708,-6.70025 24.2181,-22.31477 -16.31417,-20.78801 C 344.33152,175.24173 335.46,162.64 322.82,144.99 311.91,129.77 301.51,114.18 291.11,98.6 c -1.67,-2.5 -3,-5.79 -3.03,-8.72 -0.23,-28.49 -0.15,-56.98 -0.13,-85.47 0,-0.95 0.24,-1.91 0.58,-4.44 z"
             id="path2"
             sodipodi:nodetypes="cccccccccccccccccccccccccccccccccccccccccccccccccsccccccccccccccccccsccccccc" />
        </g>
      </g>
    </g>
  </g>
  <g
     id="g4"
     transform="matrix(0.79472027,0,0,0.79472027,50.290494,185.14986)"
     style="display:inline"
     sodipodi:insensitive="true">
	<path
   d="m 338.196,146.196 -7.999,8 c -2.929,2.929 -2.929,7.678 0,10.606 1.464,1.465 3.384,2.197 5.303,2.197 1.919,0 3.839,-0.732 5.303,-2.197 l 8,-8 c 2.929,-2.929 2.928,-7.678 0,-10.606 -2.928,-2.929 -7.677,-2.928 -10.607,0 z"
   id="path1" />

	<path
   d="m 314.197,170.196 -168,168 c -2.929,2.929 -2.929,7.678 0,10.606 1.464,1.464 3.384,2.197 5.303,2.197 1.919,0 3.839,-0.732 5.303,-2.197 l 168,-168 c 2.929,-2.929 2.929,-7.678 0,-10.606 -2.928,-2.928 -7.677,-2.928 -10.606,0 z"
   id="path2-6" />

	<path
   d="m 485.286,72.095 c -5.79,-2.346 -12.382,-1.01 -16.797,3.406 l -32.876,32.876 -38.08,-10.203 -10.203,-38.08 33.552,-33.552 c 4.431,-4.431 5.758,-10.799 3.465,-16.621 -2.276,-5.779 -7.768,-9.654 -13.99,-9.872 -15.153,-0.53 -30.085,3.23 -44.376,11.177 -16.95,9.427 -30.566,24.162 -38.34,41.493 -7.68,17.122 -9.568,34.962 -5.63,53.095 L 75.692,352.132 C 74.263,352.044 72.874,352 71.5,352 32.075,352 0,384.074 0,423.5 0,462.926 32.075,495 71.5,495 c 39.425,0 71.5,-32.075 71.5,-71.5 0,-1.374 -0.044,-2.764 -0.133,-4.192 L 389.185,172.99 c 18.161,3.945 36.031,2.043 53.183,-5.669 17.329,-7.792 32.034,-21.367 41.406,-38.223 7.662,-13.78 11.436,-28.188 11.217,-42.823 -0.094,-6.262 -3.903,-11.827 -9.705,-14.18 z m -14.621,49.713 c -7.813,14.051 -20.046,25.355 -34.448,31.832 -15.477,6.959 -30.991,8.211 -47.426,3.825 -2.585,-0.689 -5.344,0.051 -7.237,1.943 L 129.792,411.169 c -1.608,1.607 -2.399,3.858 -2.152,6.118 0.242,2.216 0.36,4.248 0.36,6.212 0,31.154 -25.346,56.5 -56.5,56.5 C 40.346,479.999 15,454.654 15,423.5 15,392.346 40.346,367 71.5,367 c 1.964,0 3.996,0.118 6.212,0.36 2.259,0.245 4.51,-0.544 6.118,-2.152 L 335.591,113.447 c 1.893,-1.893 2.633,-4.65 1.943,-7.237 -4.379,-16.411 -3.139,-31.9 3.792,-47.352 6.458,-14.397 17.802,-26.658 31.943,-34.522 12.039,-6.695 23.992,-9.74 36.562,-9.295 0.166,0.005 0.416,0.014 0.558,0.377 0.114,0.289 0.013,0.39 -0.115,0.518 L 373.66,52.549 c -1.895,1.895 -2.635,4.656 -1.941,7.244 l 12.445,46.445 c 0.694,2.588 2.715,4.61 5.304,5.304 l 46.445,12.445 c 2.588,0.693 5.35,-0.047 7.244,-1.941 l 35.938,-35.938 v 0 c 0.123,-0.123 0.239,-0.24 0.554,-0.111 0.337,0.137 0.34,0.332 0.343,0.503 0.182,12.143 -2.869,23.692 -9.327,35.308 z"
   id="path3" />

	<path
   d="M 71.5,376 C 45.309,376 24,397.308 24,423.5 24,449.692 45.309,471 71.5,471 97.691,471 119,449.691 119,423.5 119,397.309 97.691,376 71.5,376 Z m 0,80 C 53.58,456 39,441.42 39,423.5 39,405.58 53.58,391 71.5,391 89.42,391 104,405.58 104,423.5 104,441.42 89.42,456 71.5,456 Z"
   id="path4" />

</g>
</svg>
